<svg width="22" height="20" viewBox="0 0 22 20" fill="none" xmlns="http://www.w3.org/2000/svg">
<path d="M3.10412 18.7279L9.70066 12.1314C10.0967 11.7354 10.2947 11.5373 10.523 11.4632C10.7239 11.3979 10.9402 11.3979 11.141 11.4632C11.3694 11.5373 11.5674 11.7354 11.9634 12.1314L18.5159 18.6839M12.832 13L15.7007 10.1314C16.0967 9.73535 16.2947 9.53735 16.523 9.46316C16.7239 9.3979 16.9402 9.3979 17.141 9.46316C17.3694 9.53735 17.5674 9.73535 17.9634 10.1314L20.832 13M8.83203 7C8.83203 8.10457 7.9366 9 6.83203 9C5.72746 9 4.83203 8.10457 4.83203 7C4.83203 5.89543 5.72746 5 6.83203 5C7.9366 5 8.83203 5.89543 8.83203 7ZM5.63203 19H16.032C17.7122 19 18.5523 19 19.194 18.673C19.7585 18.3854 20.2174 17.9265 20.5051 17.362C20.832 16.7202 20.832 15.8802 20.832 14.2V5.8C20.832 4.11984 20.832 3.27976 20.5051 2.63803C20.2174 2.07354 19.7585 1.6146 19.194 1.32698C18.5523 1 17.7122 1 16.032 1H5.63203C3.95187 1 3.1118 1 2.47006 1.32698C1.90557 1.6146 1.44663 2.07354 1.15901 2.63803C0.832031 3.27976 0.832031 4.11984 0.832031 5.8V14.2C0.832031 15.8802 0.832031 16.7202 1.15901 17.362C1.44663 17.9265 1.90557 18.3854 2.47006 18.673C3.1118 19 3.95187 19 5.63203 19Z" stroke="#595959" stroke-width="1.5" stroke-linecap="round" stroke-linejoin="round"/>
</svg>
